<svg xmlns="http://www.w3.org/2000/svg" viewBox="0 0 48 48"><g><circle cx="24" cy="24" r="24" fill="#4285F4"/><path fill="#fff" d="M33.1 30.6c-1.2-1.1-2.9-1.2-4.1-0.3-1.2 0.9-1.7 2.6-1 4 0.7 1.4 2.3 2.2 3.7 1.8 1.4-0.4 2.3-1.8 2.3-3.2-0.1-0.7-0.5-1.3-0.9-1.8zm-18.4-1.6c-0.6-0.5-1.4-0.5-2-0.1-0.6 0.4-0.8 1.2-0.5 1.8 0.3 0.6 1 0.9 1.6 0.7 0.6-0.2 1-0.8 0.9-1.4-0.1-0.4-0.3-0.7-0.6-1zm20.4-2.4c1.6-1.3 2.6-3.3 2.6-5.5 0-2.2-1-4.1-2.6-5.5l-6.1-5c-1.7-1.3-4-1.3-5.7 0l-6.1 5c-1.6 1.3-2.6 3.3-2.6 5.5 0 2.2 1 4.1 2.6 5.5l6.1 5c1.7 1.3 4 1.3 5.7 0l6.1-5z"/></g></svg>
